<?xml version="1.0" encoding="UTF-8"?>
<svg version="1.1" viewBox="0 0 400 220" xmlns="http://www.w3.org/2000/svg">
 <defs>
  <linearGradient id="c" x1="244" x2="247" y1="888.36" y2="1019.4" gradientUnits="userSpaceOnUse">
   <stop stop-color="#0000d4" offset="0"/>
   <stop stop-color="#005" offset="1"/>
  </linearGradient>
  <linearGradient id="b" x1="234" x2="220" y1="49" y2="150" gradientUnits="userSpaceOnUse">
   <stop stop-color="#d5d5ff" offset="0"/>
   <stop stop-color="#d5d5ff" stop-opacity="0" offset="1"/>
  </linearGradient>
  <linearGradient id="a" x1="253" x2="248" y1="1011.6" y2="953.36" gradientTransform="translate(0 -832.36)" gradientUnits="userSpaceOnUse">
   <stop stop-color="#2a2aff" offset="0"/>
   <stop stop-color="#8080ff" stop-opacity="0" offset="1"/>
  </linearGradient>
  <filter id="d" x="-.066967" y="-.57676" width="1.1339" height="2.1535">
   <feGaussianBlur stdDeviation="8.7893595"/>
  </filter>
 </defs>
 <g transform="translate(0 -832.36)">
  <path d="m212.32 1016.7c-0.58655 0.01-1.0528-0.047-1.3525-0.1852-2.8493-1.2736 9.7326-22.199 9.9013-36.792-47.501 1.9124-185.9 23.579-194.57 20.431-5.6681-2.056 10.912-26.617 12.379-50.922 1.4665-24.305-12.181-48.354-6.1773-50.608 9.1924-3.4508 146.28 13.549 193.61 13.855 2.1065-14.627-4.5722-35.225-1.5168-36.599 10.292-4.6268 159.64 56.593 158.94 65.51-0.67258 8.6381-153.03 74.951-171.21 75.311z" color="#000000" fill="#00112b" stroke="#00112b" stroke-width="9"/>
  <path d="m212.32 1012.7c-0.58655 0.01-1.0528-0.047-1.3525-0.1852-2.8493-1.2736 9.7326-22.199 9.9013-36.792-47.501 1.9124-185.9 23.579-194.57 20.431-5.6681-2.0561 10.912-26.617 12.379-50.922 1.4665-24.305-12.181-48.354-6.1773-50.608 9.1924-3.4508 146.28 13.549 193.61 13.855 2.1065-14.627-4.5722-35.225-1.5168-36.599 10.292-4.6268 159.64 56.593 158.94 65.51-0.67258 8.6381-153.03 74.951-171.21 75.311z" color="#000000" fill="url(#c)"/>
  <path d="m207.5 926.57c-86.98 2.28-157.5 12.11-157.5 21.94 0 9.8368 70.515 15.963 157.5 13.683 86.985-2.2797 157.5-12.102 157.5-21.939 0-9.8368-70.515-15.963-157.5-13.683z" color="#000000" fill="#0000d4" filter="url(#d)" opacity=".4"/>
  <path transform="translate(0 832.36)" d="m225.72 40.031c-0.58 0.02-1.03 0.076-1.34 0.219-3.03 1.358 3.58 21.724 1.5 36.188-46.81-0.303-182.38-17.1-191.47-13.688-5.94 2.229 7.571 25.997 6.121 50.03-0.015 0.26-0.043 0.52-0.062 0.78 32.744 1.04 67.691 1.23 104.03 0.47 86.14-1.81 164.66-8.68 223.84-18.53-34.92-18.799-128.15-55.954-142.62-55.469z" color="#000000" fill="url(#b)"/>
  <path transform="translate(0 832.36)" d="m381.56 107.38c-68.6 22.39-171.51 36.62-286.56 36.62-21.698 0-42.97-0.5-63.656-1.47-4.303 11.57-8.26 20.05-5.032 21.22 8.679 3.15 147.06-18.53 194.57-20.44-0.17 14.6-12.76 35.54-9.91 36.81 0.3 0.14 0.76 0.17 1.34 0.16 17.01-0.34 151.36-58.32 169.25-72.9z" color="#000000" fill="url(#a)"/>
 </g>
</svg>
